# xmcd CD database file
#
# Track frame offsets:
#	150
#	17586
#	31446
#	54981
#	72140
#	75025
#	93392
#	106031
#	115374
#	141895
#	158464
#	177981
#	181251
#	192619
#	221727
#
# Disc length: 3101 seconds
#
# Revision: 0
# Processed by: cddbd v1.5.2PL0 Copyright (c) Steve Scherf et al.
# Submitted via: CDex 1.51
#
DISCID=bd0c1b0f
DTITLE=Jaspects - Double Consciousness
DYEAR=1900
DGENRE=Jazz
TTITLE0=Revolution: The Encryption
TTITLE1=Be-Hop
TTITLE2=Heaven Underground
TTITLE3=Please Step Up Your Game
TTITLE4=Hip-Hop and Jazz Don't Mix? (Interlude)
TTITLE5=Uppity Negro
TTITLE6=A Night In Tunisia
TTITLE7=One Last Cry Before I Say...
TTITLE8=Goodbye Love (feat. Fonzworth Bentley)
TTITLE9=You Got Me Funked Up (feat. Tony Towerz)
TTITLE10=Chitlins and Chalupas
TTITLE11=Calhoun's Joint (Interlude)
TTITLE12=Shawty Dead Wrong (feat. Scar)
TTITLE13=The Voice Within (feat. Sarah Stephens)
TTITLE14=Revelation: Nocturne in J Minor
EXTD=
EXTT0=
EXTT1=
EXTT2=
EXTT3=
EXTT4=
EXTT5=
EXTT6=
EXTT7=
EXTT8=
EXTT9=
EXTT10=
EXTT11=
EXTT12=
EXTT13=
EXTT14=
PLAYORDER=
